<svg xmlns="http://www.w3.org/2000/svg" width="256" height="256" viewBox="0 0 100 100"><rect width="100" height="100" rx="20" fill="#c33c3b"></rect><path fill="#e4dcc6" d="M37.77 50.60L37.77 50.60Q34.93 52.59 29.50 52.59L29.50 52.59Q21.87 52.43 16.66 47.54Q11.45 42.65 11.45 35.46L11.45 35.46Q11.45 25.04 19.67 17.68Q27.89 10.32 40.40 10.27L40.40 10.27Q51.04 10.21 60.47 15.26Q69.89 20.31 76.98 25.41L76.98 25.41Q81.92 29.12 86.11 25.41L86.11 25.41Q87.29 24.34 88.15 25.17Q89.01 26.00 87.99 26.97L87.99 26.97L78.75 34.71Q72.58 39.22 64.63 33.95L64.63 33.95Q56.95 28.64 48.49 24.12Q40.03 19.61 32.99 19.61L32.99 19.61Q24.72 19.61 19.81 24.29Q14.89 28.96 14.84 34.92L14.84 34.92Q14.57 49.05 29.07 50.50L29.07 50.50Q33.21 50.98 36.48 48.62L36.48 48.62Q37.72 47.86 38.31 48.83Q38.90 49.80 37.77 50.60ZM14.35 67.74L14.35 67.74Q20.80 62.53 25.37 60.65L25.37 60.65Q31.92 57.85 35.52 61.61L35.52 61.61Q45.51 71.93 52.22 76.63Q58.93 81.33 63.85 82.35Q68.76 83.37 72.52 81.65Q76.28 79.93 80.42 77.41L80.42 77.41Q82.03 76.33 82.73 77.27Q83.43 78.21 82.19 79.23L82.19 79.23Q77.04 83.47 71.34 86.56Q65.65 89.65 58.85 89.73Q52.06 89.81 43.84 86.00Q35.62 82.19 25.42 72.52L25.42 72.52Q22.04 69.24 18.76 69.30L18.76 69.30Q16.99 69.30 15.00 70.26L15.00 70.26Q13.71 70.85 13.25 69.89Q12.80 68.92 14.35 67.74ZM50.93 29.01L50.93 29.01Q47.01 32.07 48.84 35.48Q50.66 38.89 56.68 43.51L56.68 43.51Q67.10 51.57 66.27 58.82Q65.43 66.07 51.58 71.23L51.58 71.23Q50.45 71.71 49.94 70.91Q49.43 70.10 50.45 69.46L50.45 69.46Q55.71 66.07 54.29 62.15Q52.87 58.23 46.20 53.13L46.20 53.13Q38.36 47.27 37.64 40.69Q36.91 34.11 49.54 27.35L49.54 27.35Q50.82 26.65 51.47 27.37Q52.11 28.10 50.93 29.01Z"></path></svg>